<?xml version="1.0" encoding="UTF-8" standalone="no"?>
<!-- Generator: Adobe Illustrator 18.1.0, SVG Export Plug-In . SVG Version: 6.00 Build 0)  -->

<svg
   xmlns:dc="http://purl.org/dc/elements/1.1/"
   xmlns:cc="http://creativecommons.org/ns#"
   xmlns:rdf="http://www.w3.org/1999/02/22-rdf-syntax-ns#"
   xmlns:svg="http://www.w3.org/2000/svg"
   xmlns="http://www.w3.org/2000/svg"
   xmlns:sodipodi="http://sodipodi.sourceforge.net/DTD/sodipodi-0.dtd"
   xmlns:inkscape="http://www.inkscape.org/namespaces/inkscape"
   version="1.1"
   x="0px"
   y="0px"
   viewBox="0 0 500 500"
   enable-background="new 0 0 600 600"
   xml:space="preserve"
   id="svg2"
   inkscape:version="0.91 r13725"
   sodipodi:docname="neo4j_logo.svg"
   ><metadata
     id="metadata36"><rdf:RDF><cc:Work
         rdf:about=""><dc:format>image/svg+xml</dc:format><dc:type
           rdf:resource="http://purl.org/dc/dcmitype/StillImage" /><dc:title></dc:title></cc:Work></rdf:RDF></metadata><defs
     id="defs34" /><sodipodi:namedview
     pagecolor="#ffffff"
     bordercolor="#666666"
     borderopacity="1"
     objecttolerance="10"
     gridtolerance="10"
     guidetolerance="10"
     inkscape:pageopacity="0"
     inkscape:pageshadow="2"
     inkscape:window-width="1920"
     inkscape:window-height="1174"
     id="namedview32"
     showgrid="false"
     showguides="false"
     inkscape:zoom="0.55625733"
     inkscape:cx="350.27283"
     inkscape:cy="327.94533"
     inkscape:window-x="0"
     inkscape:window-y="0"
     inkscape:window-maximized="1"
     inkscape:current-layer="svg2" /><g
     id="Neo4j"
     transform="translate(0,-44)"><g
       id="g5"><path
         d="m 458.8,278.8 c 0,114 -92.4,206.4 -206.4,206.4 C 138.4,485.2 46,392.8 46,278.8 46,164.8 138.4,72.4 252.4,72.4 c 114,-0.1 206.4,92.4 206.4,206.4"
         id="path7"
         inkscape:connector-curvature="0"
         style="fill:#008cc1" /><path
         d="m 137.5,211.1 c 0,9.1 -7.4,16.5 -16.5,16.5 -9.1,0 -16.5,-7.4 -16.5,-16.5 0,-9.1 7.4,-16.5 16.5,-16.5 9.2,0 16.5,7.4 16.5,16.5"
         id="path9"
         inkscape:connector-curvature="0"
         style="fill:#ffffff" /><path
         d="m 140.3,256.4 c 0,9.1 -7.4,16.5 -16.5,16.5 -9.1,0 -16.5,-7.4 -16.5,-16.5 0,-9.1 7.4,-16.5 16.5,-16.5 9.1,0 16.5,7.3 16.5,16.5"
         id="path11"
         inkscape:connector-curvature="0"
         style="fill:#ffffff" /><path
         d="m 150.4,304.4 c 0,9.1 -7.4,16.5 -16.5,16.5 -9.1,0 -16.5,-7.4 -16.5,-16.5 0,-9.1 7.4,-16.5 16.5,-16.5 9.1,-0.1 16.5,7.3 16.5,16.5"
         id="path13"
         inkscape:connector-curvature="0"
         style="fill:#ffffff" /><path
         d="m 173,347.4 c 0,9.1 -7.4,16.5 -16.5,16.5 -9.1,0 -16.5,-7.4 -16.5,-16.5 0,-9.1 7.4,-16.5 16.5,-16.5 9.1,-0.1 16.5,7.3 16.5,16.5"
         id="path15"
         inkscape:connector-curvature="0"
         style="fill:#ffffff" /><path
         d="m 349.7,407.5 c 0,9.1 -7.4,16.5 -16.5,16.5 -9.1,0 -16.5,-7.4 -16.5,-16.5 0,-9.1 7.4,-16.5 16.5,-16.5 9.1,0 16.5,7.4 16.5,16.5"
         id="path17"
         inkscape:connector-curvature="0"
         style="fill:#ffffff" /><path
         d="m 379.7,372 c 0,9.1 -7.4,16.5 -16.5,16.5 -9.1,0 -16.5,-7.4 -16.5,-16.5 0,-9.1 7.4,-16.5 16.5,-16.5 9.1,0 16.5,7.4 16.5,16.5"
         id="path19"
         inkscape:connector-curvature="0"
         style="fill:#ffffff" /><path
         d="m 292.7,121 c 0,9.1 -7.4,16.5 -16.5,16.5 -9.1,0 -16.5,-7.4 -16.5,-16.5 0,-9.1 7.4,-16.5 16.5,-16.5 9.1,0 16.5,7.4 16.5,16.5"
         id="path21"
         inkscape:connector-curvature="0"
         style="fill:#ffffff" /><path
         d="m 249.3,105.8 c 0,9.1 -7.4,16.5 -16.5,16.5 -9.1,0 -16.5,-7.4 -16.5,-16.5 0,-9.1 7.4,-16.5 16.5,-16.5 9.1,0 16.5,7.4 16.5,16.5"
         id="path23"
         inkscape:connector-curvature="0"
         style="fill:#ffffff" /><circle
         stroke-miterlimit="10"
         cx="366.29999"
         cy="229.60001"
         r="110"
         id="circle25"
         style="fill:#66b245;stroke:#ffffff;stroke-width:3.5;stroke-miterlimit:10" /><circle
         stroke-miterlimit="10"
         cx="215.60001"
         cy="453.89999"
         r="90"
         id="circle27"
         style="fill:#66b245;stroke:#ffffff;stroke-width:3.5;stroke-miterlimit:10" /><circle
         stroke-miterlimit="10"
         cx="141.5"
         cy="119"
         r="60"
         id="circle29"
         style="fill:#66b245;stroke:#ffffff;stroke-width:3.5;stroke-miterlimit:10" /></g></g><g
     id="Layer_2"
     transform="translate(0,-100)" /></svg>