<svg id="svg" xmlns="http://www.w3.org/2000/svg" xmlns:xlink="http://www.w3.org/1999/xlink" viewBox="0, 0, 400,400"><g id="svgg"><path id="path0" d="M170.350 22.820 C 157.835 40.990,158.227 41.404,182.821 35.993 C 203.980 31.338,262.518 29.543,285.906 32.831 L 299.329 34.719 282.031 26.513 C 257.241 14.752,228.410 8.054,202.582 8.054 L 180.520 8.054 170.350 22.820 M143.805 15.368 C 135.894 17.384,101.353 33.761,95.450 38.294 C 90.516 42.083,90.851 42.409,101.529 44.213 C 111.856 45.958,113.496 45.408,120.579 37.826 C 125.047 33.043,131.038 29.530,134.726 29.530 C 138.988 29.530,142.713 26.841,145.882 21.477 C 148.498 17.047,150.269 13.563,149.816 13.734 C 149.364 13.906,146.658 14.641,143.805 15.368 M210.056 47.125 C 167.885 53.954,166.797 55.090,192.513 65.459 C 237.945 83.777,285.776 120.589,322.428 165.444 C 331.323 176.329,340.074 185.235,341.875 185.235 C 346.107 185.235,359.083 151.833,364.440 127.150 L 368.612 107.923 361.482 95.756 C 347.431 71.779,325.273 51.918,308.725 48.467 C 284.082 43.327,237.430 42.693,210.056 47.125 M64.058 63.758 C 57.320 70.772,48.305 81.275,44.024 87.100 L 36.242 97.689 48.322 90.322 C 54.966 86.270,72.483 76.802,87.248 69.283 C 116.572 54.350,116.968 51.574,89.832 51.195 C 77.110 51.018,75.582 51.763,64.058 63.758 M156.472 74.148 C 153.202 77.662,147.489 80.537,143.775 80.537 C 121.274 80.537,88.429 214.261,106.711 231.433 C 129.650 252.977,273.240 243.594,310.323 218.127 C 336.026 200.475,262.620 114.897,191.421 79.510 C 166.349 67.049,163.486 66.609,156.472 74.148 M95.558 87.329 C 72.633 100.423,43.043 120.801,38.529 126.603 C 35.004 131.133,42.869 171.925,53.178 202.582 C 64.644 236.679,85.906 239.237,85.906 206.519 C 85.906 183.612,95.473 137.845,107.249 104.411 C 112.915 88.327,117.376 75.177,117.164 75.188 C 116.952 75.199,107.229 80.662,95.558 87.329 M370.654 135.983 C 368.681 146.092,364.265 162.170,360.840 171.714 C 353.380 192.502,353.908 193.509,367.379 184.174 C 391.040 167.777,391.515 165.259,377.985 127.929 L 374.242 117.604 370.654 135.983 M15.347 146.709 C 12.992 150.519,8.098 182.074,8.074 193.602 C 8.055 202.765,8.833 203.635,21.898 209.064 C 37.951 215.736,38.795 215.471,34.626 205.070 C 32.916 200.805,28.251 185.327,24.259 170.674 C 20.268 156.021,16.257 145.237,15.347 146.709 M374.083 187.844 C 358.449 202.602,357.730 216.171,371.090 244.295 C 377.026 256.793,381.213 262.902,382.127 260.403 C 387.145 246.684,389.657 231.478,391.106 206.040 C 393.018 172.488,391.766 171.150,374.083 187.844 M299.329 233.857 C 252.225 254.314,193.165 263.089,137.109 257.961 C 96.110 254.210,97.239 253.386,101.646 283.866 C 105.221 308.593,112.278 321.282,134.034 342.104 L 142.263 349.980 156.486 345.496 C 200.348 331.670,250.717 300.090,287.534 263.332 C 308.629 242.271,322.901 225.095,318.886 225.600 C 318.465 225.653,309.664 229.368,299.329 233.857 M10.738 231.364 C 10.738 281.867,88.286 378.550,112.412 358.127 C 115.351 355.640,97.610 320.093,83.825 300.848 C 75.097 288.664,63.841 270.434,58.810 260.339 C 50.107 242.871,48.950 241.728,34.899 236.717 C 26.779 233.821,18.020 230.588,15.436 229.533 C 12.288 228.247,10.738 228.851,10.738 231.364 M317.267 251.944 C 288.003 291.298,238.593 330.899,188.077 355.485 C 160.971 368.678,161.032 367.640,186.432 383.602 C 218.097 403.502,289.249 380.415,334.457 335.570 C 366.678 303.609,366.628 303.974,345.735 253.020 C 335.918 229.079,334.315 229.018,317.267 251.944 M77.852 263.087 C 87.039 281.285,89.969 283.359,87.825 270.146 C 86.594 262.565,75.262 246.980,70.980 246.980 C 70.288 246.980,73.380 254.228,77.852 263.087 M117.394 344.966 C 118.871 347.919,120.545 351.807,121.114 353.605 C 121.712 355.497,123.574 355.988,125.532 354.771 C 128.025 353.222,127.045 350.946,121.812 346.133 C 115.788 340.591,115.116 340.414,117.394 344.966 M138.926 375.005 C 127.981 377.865,138.895 383.446,164.430 388.046 C 177.183 390.343,177.078 388.999,163.816 380.223 C 153.483 373.385,148.846 372.413,138.926 375.005 " stroke="none" fill="#0491b1" fill-rule="evenodd"></path></g></svg>